# xmcd
#
# Track frame offsets: 
#        150
#        14387
#        29577
#        45318
#        56293
#        66978
#        75261
#        89413
#        100055
#        111327
#        121745
#        133205
#        144062
#        156644
#        168477
#        180819
#        191253
#        204533
#
# Disc length: 2954 seconds
#
# Revision: 1
# Processed by: cddbd v1.5.2PL0 Copyright (c) Steve Scherf et al.
# Submitted via: ExactAudioCopy v0.99pb5
#
DISCID=e60b8812
DTITLE=Various Artist - Shot of Country CD 2
DYEAR=2001
DGENRE=country
TTITLE0=George Jones - A Good Year For The Roses
TTITLE1=Kenny Rogers - For The Good Times
TTITLE2=Skeeter Davis - Desperado
TTITLE3=Hank Locklin - Send Me The Pillow
TTITLE4=Freddy Fender - A Man Can Cry
TTITLE5=Johnny Cash - Guess Thigs Happen That Way
TTITLE6=Billie Jo Spears - Which Way You Goin'Billy
TTITLE7=Carl Belew - Am I That Easy To Forget
TTITLE8=Donna Fargo - Wishful Thinking
TTITLE9=Dave Dudley - Six Days On The Road
TTITLE10=Flying Burrito Brothers - My Abandoned Heart
TTITLE11=Patsy Cline - I Cried All The Way To The Altar
TTITLE12=Gene Autry - Goodnight Irene
TTITLE13=Merle Haggard - Carolyn
TTITLE14=Sandford Clark - Tehy Call Me Country
TTITLE15=Buck Owens - Under The Influence Of Love
TTITLE16=Charlie Rich - Behind Closed Doors
TTITLE17=Razzy Bailey - (Let Me Be Your) Teddy Bear
EXTD=
EXTT0=
EXTT1=
EXTT2=
EXTT3=
EXTT4=
EXTT5=
EXTT6=
EXTT7=
EXTT8=
EXTT9=
EXTT10=
EXTT11=
EXTT12=
EXTT13=
EXTT14=
EXTT15=
EXTT16=
EXTT17=
PLAYORDER=
